<?xml version="1.0" encoding="utf-8"?>
<svg width="93" height="91" xmlns="http://www.w3.org/2000/svg">
  <g>
    <title>background</title>
    <rect fill="none" id="canvas_background" height="93" width="95" y="-1" x="-1"/>
  </g>
  <g>
    <title>Layer 1</title>
    <path stroke="null" id="svg_1" d="M 73.027 -8.462 C 83.747 0.178 86.144 -1.67 99.385 8.237 C 110.74 16.732 103.96 27.704 99.886 33.179 C 95.812 38.653 80.925 52.641 76.666 59.412 C 67.767 73.56 73.477 95.526 61.012 108.3 C 48.547 121.074 -16.033 42.631 -13.207 35.673 C -10.381 28.714 1.252 10.497 9.513 -1.529 C 15.628 -10.431 24.894 -38.858 39.752 -34.941 C 54.61 -31.024 61.436 -17.804 73.027 -8.462 Z" style="fill: rgb(255, 230, 230);" transform="matrix(-0.809017, 0.587785, -0.587785, -0.809017, 109.430293, 35.740383)"/>
  </g>
</svg>