<?xml version="1.0" standalone="no"?>
<svg viewBox="0 0 200 200" xmlns="http://www.w3.org/2000/svg">
  <path fill="#ffe6e6" d="M19,-38.9C25.9,-28.9,33.8,-26.5,38.7,-21.3C43.5,-16.1,45.3,-8,42.6,-1.6C39.8,4.8,32.5,9.7,28.7,16.8C25,23.8,24.7,33.1,20.5,38C16.3,42.9,8.2,43.3,-2.8,48.2C-13.8,53.1,-27.7,62.6,-35.7,59.9C-43.7,57.2,-45.8,42.4,-42.7,30.4C-39.6,18.4,-31.2,9.2,-32.6,-0.8C-34,-10.8,-45.1,-21.7,-44.4,-27C-43.7,-32.4,-31.2,-32.3,-21.8,-41C-12.4,-49.6,-6.2,-67.1,-0.1,-66.9C6,-66.7,12,-49,19,-38.9Z" transform="translate(100 100)" />
</svg>
